<svg width="1256" height="738" viewBox="0 0 1256 738" fill="none" xmlns="http://www.w3.org/2000/svg">
<path d="M753.25 401.5C768.083 401.5 781.667 408.083 794 421.25C806.5 434.417 812.75 449.75 812.75 467.25C812.75 484.583 806.583 499.833 794.25 513C781.917 526 768.667 532.5 754.5 532.5C740.333 532.5 730.25 528.5 724.25 520.5C722.917 528.667 715.75 532.75 702.75 532.75C692.25 532.75 685.833 530.5 683.5 526C682.333 523.5 681.583 521.333 681.25 519.5C681.083 517.5 681 514.583 681 510.75V361.5C681 357.667 681.083 354.833 681.25 353C681.583 351 682.333 348.833 683.5 346.5C685.833 342 692.333 339.75 703 339.75C713.5 339.75 719.833 342 722 346.5C723.333 349 724.083 351.25 724.25 353.25C724.583 355.083 724.75 357.917 724.75 361.75V413.75C731.417 405.583 740.917 401.5 753.25 401.5ZM731.25 482.25C735.417 486.75 740.583 489 746.75 489C752.917 489 758.167 486.75 762.5 482.25C766.833 477.75 769 472.75 769 467.25C769 461.75 767 456.75 763 452.25C759 447.583 753.667 445.25 747 445.25C740.333 445.25 735 447.583 731 452.25C727.167 456.917 725.25 462 725.25 467.5C725.25 472.833 727.25 477.75 731.25 482.25ZM828.949 423.25C828.949 419.417 829.033 416.583 829.199 414.75C829.533 412.75 830.283 410.5 831.449 408C833.783 403.667 840.283 401.5 850.949 401.5C858.949 401.5 864.616 402.917 867.949 405.75C870.783 408.083 872.283 411.667 872.449 416.5C872.616 418.167 872.699 420.583 872.699 423.75V511.25C872.699 515.083 872.533 518 872.199 520C872.033 521.833 871.283 524 869.949 526.5C867.783 530.833 861.366 533 850.699 533C840.199 533 833.783 530.75 831.449 526.25C830.283 523.75 829.533 521.583 829.199 519.75C829.033 517.917 828.949 515 828.949 511V423.25ZM869.949 377C868.783 379.333 866.616 381 863.449 382C860.283 383 856.033 383.5 850.699 383.5C845.533 383.5 841.366 383 838.199 382C835.033 381 832.783 379.25 831.449 376.75C830.283 374.25 829.533 372.083 829.199 370.25C829.033 368.25 828.949 365.333 828.949 361.5C828.949 357.667 829.033 354.833 829.199 353C829.533 351 830.283 348.833 831.449 346.5C833.783 342 840.283 339.75 850.949 339.75C861.449 339.75 867.783 342 869.949 346.5C871.283 349 872.033 351.25 872.199 353.25C872.533 355.083 872.699 357.917 872.699 361.75C872.699 365.583 872.533 368.5 872.199 370.5C872.033 372.333 871.283 374.5 869.949 377ZM969.17 445.5L952.92 444.5V479C952.92 483.5 953.587 486.75 954.92 488.75C956.42 490.75 959.087 491.75 962.92 491.75C966.92 491.75 969.92 491.917 971.92 492.25C974.087 492.417 976.337 493.167 978.67 494.5C982.503 496.667 984.42 502.25 984.42 511.25C984.42 521.75 982.087 528.167 977.42 530.5C974.92 531.667 972.67 532.417 970.67 532.75C968.837 532.917 966.087 533 962.42 533C945.087 533 931.92 529.083 922.92 521.25C913.92 513.417 909.42 500.167 909.42 481.5V444.5C906.253 445 902.837 445.25 899.17 445.25C895.503 445.25 892.42 443.833 889.92 441C887.587 438.167 886.42 433.333 886.42 426.5C886.42 419.667 886.837 414.75 887.67 411.75C888.503 408.583 889.67 406.333 891.17 405C893.837 402.833 897.17 401.75 901.17 401.75L909.42 402.75V377C909.42 373.167 909.503 370.333 909.67 368.5C910.003 366.667 910.837 364.667 912.17 362.5C914.337 358.333 920.753 356.25 931.42 356.25C942.753 356.25 949.503 359.333 951.67 365.5C952.503 368.167 952.92 372.417 952.92 378.25V402.75C960.253 402.083 965.753 401.75 969.42 401.75C973.253 401.75 976.087 401.917 977.92 402.25C979.92 402.417 982.17 403.167 984.67 404.5C989.003 406.667 991.17 413.083 991.17 423.75C991.17 434.25 988.92 440.667 984.42 443C981.92 444.167 979.67 444.917 977.67 445.25C975.837 445.417 973.003 445.5 969.17 445.5ZM1127.09 451.5C1127.09 461.667 1124.51 469.25 1119.34 474.25C1114.34 479.083 1108.76 481.5 1102.59 481.5H1043.34C1043.34 486.167 1046.09 490.083 1051.59 493.25C1057.09 496.417 1062.59 498 1068.09 498C1077.76 498 1085.34 497 1090.84 495L1093.59 494C1097.59 492.167 1100.93 491.25 1103.59 491.25C1108.93 491.25 1113.51 495 1117.34 502.5C1119.51 507 1120.59 510.833 1120.59 514C1120.59 528.833 1102.84 536.25 1067.34 536.25C1055.01 536.25 1044.01 534.167 1034.34 530C1024.84 525.667 1017.43 520 1012.09 513C1001.59 499.5 996.342 484.417 996.342 467.75C996.342 446.75 1003.09 430 1016.59 417.5C1030.26 404.833 1047.26 398.5 1067.59 398.5C1090.76 398.5 1107.76 406.667 1118.59 423C1124.26 431.667 1127.09 441.167 1127.09 451.5ZM1074.34 458.75C1080.68 458.75 1083.84 456.083 1083.84 450.75C1083.84 446.917 1082.34 443.833 1079.34 441.5C1076.51 439.167 1072.34 438 1066.84 438C1061.51 438 1056.18 440.25 1050.84 444.75C1045.51 449.083 1042.84 453.75 1042.84 458.75H1074.34ZM1144.4 521.25C1141.24 519.25 1139.65 516.083 1139.65 511.75C1139.65 507.417 1142.82 500.833 1149.15 492C1150.99 489.167 1153.9 487.75 1157.9 487.75C1162.07 487.75 1167.65 489.833 1174.65 494C1181.65 498 1187.99 500 1193.65 500C1203.82 500 1208.9 498 1208.9 494C1208.9 490.833 1203.32 488.5 1192.15 487C1181.65 485.5 1171.24 481.583 1160.9 475.25C1156.07 472.25 1152.07 467.583 1148.9 461.25C1145.74 454.75 1144.15 447.083 1144.15 438.25C1144.15 411.917 1162.24 398.75 1198.4 398.75C1210.24 398.75 1222.4 401.583 1234.9 407.25C1240.74 409.917 1243.65 413.25 1243.65 417.25C1243.65 421.25 1241.82 426.167 1238.15 432C1234.49 437.833 1230.74 440.75 1226.9 440.75C1224.9 440.75 1221.15 439.5 1215.65 437C1210.32 434.5 1204.49 433.25 1198.15 433.25C1188.32 433.25 1183.4 435.083 1183.4 438.75C1183.4 443.75 1189.07 447 1200.4 448.5C1211.4 449.667 1222.07 452.833 1232.4 458C1237.24 460.333 1241.24 464.417 1244.4 470.25C1247.74 475.917 1249.4 483.083 1249.4 491.75C1249.4 500.417 1247.74 507.833 1244.4 514C1241.24 520 1236.74 524.5 1230.9 527.5C1220.24 532.667 1206.82 535.25 1190.65 535.25C1174.65 535.25 1159.24 530.583 1144.4 521.25Z" fill="white"/>
<circle cx="506.5" cy="150.5" r="47.5" fill="#1E2A5F" stroke="white" stroke-width="10"/>
<circle cx="381" cy="223" r="31" fill="#1E2A5F" stroke="white" stroke-width="10"/>
<circle cx="480" cy="24" r="8" fill="#1E2A5F" stroke="white" stroke-width="10"/>
<circle cx="334" cy="75" r="70" fill="#1E2A5F" stroke="white" stroke-width="10"/>
<mask id="mask0_125_97" style="mask-type:alpha" maskUnits="userSpaceOnUse" x="0" y="103" width="635" height="635">
<circle cx="317.5" cy="420.5" r="317.5" fill="#D9D9D9"/>
</mask>
<g mask="url(#mask0_125_97)">
<mask id="mask1_125_97" style="mask-type:luminance" maskUnits="userSpaceOnUse" x="-12" y="117" width="660" height="633">
<mask id="path-7-outside-1_125_97" maskUnits="userSpaceOnUse" x="-12" y="116.649" width="660" height="634" fill="black">
<rect fill="white" x="-12" y="116.649" width="660" height="634"/>
<path fill-rule="evenodd" clip-rule="evenodd" d="M259 217C262.18 217 265.319 216.823 268.407 216.479C284.017 267.719 331.655 305 388 305C421.286 305 451.534 291.989 473.934 270.776C488.473 285.135 508.451 294 530.5 294C557.285 294 581.015 280.918 595.648 260.795C622.592 307.683 638 362.042 638 420C638 596.731 494.731 740 318 740C141.269 740 -2 596.731 -2 420C-2 294.665 70.0561 186.159 175.002 133.649C175.351 179.742 212.825 217 259 217Z"/>
</mask>
<path fill-rule="evenodd" clip-rule="evenodd" d="M259 217C262.18 217 265.319 216.823 268.407 216.479C284.017 267.719 331.655 305 388 305C421.286 305 451.534 291.989 473.934 270.776C488.473 285.135 508.451 294 530.5 294C557.285 294 581.015 280.918 595.648 260.795C622.592 307.683 638 362.042 638 420C638 596.731 494.731 740 318 740C141.269 740 -2 596.731 -2 420C-2 294.665 70.0561 186.159 175.002 133.649C175.351 179.742 212.825 217 259 217Z" fill="white"/>
<path d="M268.407 216.479L277.973 213.565L275.553 205.621L267.299 206.541L268.407 216.479ZM473.934 270.776L480.961 263.661L474.081 256.865L467.058 263.515L473.934 270.776ZM595.648 260.795L604.319 255.813L596.633 242.438L587.561 254.914L595.648 260.795ZM175.002 133.649L185.002 133.574L184.881 117.525L170.528 124.706L175.002 133.649ZM267.299 206.541C264.578 206.844 261.809 207 259 207V227C262.551 227 266.059 226.803 269.514 226.418L267.299 206.541ZM388 295C336.177 295 292.336 260.714 277.973 213.565L258.841 219.393C275.697 274.725 327.132 315 388 315V295ZM467.058 263.515C446.441 283.04 418.628 295 388 295V315C423.945 315 456.627 300.939 480.81 278.037L467.058 263.515ZM530.5 284C511.187 284 493.705 276.247 480.961 263.661L466.907 277.891C483.241 294.024 505.716 304 530.5 304V284ZM587.561 254.914C574.728 272.56 553.95 284 530.5 284V304C560.62 304 587.301 289.276 603.736 266.677L587.561 254.914ZM586.978 265.778C613.074 311.19 628 363.836 628 420H648C648 360.247 632.11 304.176 604.319 255.813L586.978 265.778ZM628 420C628 591.208 489.208 730 318 730V750C500.254 750 648 602.254 648 420H628ZM318 730C146.792 730 8 591.208 8 420H-12C-12 602.254 135.746 750 318 750V730ZM8 420C8 298.596 77.7859 193.474 179.477 142.592L170.528 124.706C62.3262 178.845 -12 290.734 -12 420H8ZM259 207C218.322 207 185.31 174.178 185.002 133.574L165.003 133.725C165.393 185.307 207.327 227 259 227V207Z" fill="white" mask="url(#path-7-outside-1_125_97)"/>
</mask>
<g mask="url(#mask1_125_97)">
<path d="M630.312 420.242C630.312 247.7 490.426 107.803 317.872 107.803C145.318 107.803 5.43213 247.675 5.43213 420.242C5.43213 592.81 145.318 732.682 317.872 732.682C490.426 732.682 630.312 592.81 630.312 420.242Z" fill="#1E2A5F" stroke="white" stroke-width="10"/>
<path d="M391.192 429.824C391.192 399.076 400.75 373.611 417.67 355.869C434.562 338.156 459.219 327.69 490.333 327.69C534.831 327.69 561.762 351.682 572.765 375.635L528.462 396.925C525.687 388.839 521.691 381.952 516.141 376.799C509.207 370.36 500.257 367.015 489.411 367.015C474.548 367.015 462.987 373.289 455.364 384.689C447.928 395.81 444.501 411.389 444.501 429.824C444.501 448.147 447.929 463.534 455.388 474.485C463.037 485.716 474.605 491.789 489.411 491.789C499.49 491.789 507.857 489.084 514.539 483.842C519.947 479.6 523.981 473.908 526.97 467.25L573.572 483.838C566.674 497.528 556.964 508.989 544.253 517.286C530.066 526.546 511.866 532.045 489.104 532.045C457.543 532.045 433.223 521.502 416.764 503.784C400.259 486.016 391.192 460.526 391.192 429.824ZM74.2642 448.744V331.33H126.388V449.947C126.388 464.089 128.176 474.88 134.572 482.414C140.816 489.82 150.499 492.71 162.753 492.71C174.981 492.71 184.67 489.822 190.912 482.419C197.343 474.878 199.1 464.073 199.1 449.947V331.33H251.234V448.744C251.234 477.274 248.212 490.22 240.663 503.134C234.665 513.116 223.368 520.481 209.093 525.349C194.886 530.194 178.326 532.353 162.753 532.353C147.168 532.353 130.609 530.194 116.407 525.349C102.136 520.481 90.8453 513.115 84.8486 503.131C77.2773 490.22 74.2642 477.279 74.2642 448.744ZM298.943 528.384V331.33H351.074V528.384H298.943Z" fill="white" stroke="white" stroke-width="10"/>
<path fill-rule="evenodd" clip-rule="evenodd" d="M268.407 216.479C265.319 216.823 262.18 217 259 217C212.608 217 175 179.392 175 133C175 86.6081 212.608 49 259 49C282.976 49 304.605 59.0446 319.91 75.1552C339.5 62.4067 362.885 54.9998 388 54.9998C441.922 54.9998 487.87 89.1426 505.403 136.989C513.301 134.4 521.737 133 530.5 133C574.959 133 611 169.041 611 213.5C611 257.959 574.959 294 530.5 294C508.451 294 488.473 285.135 473.934 270.776C451.534 291.989 421.286 305 388 305C331.655 305 284.017 267.719 268.407 216.479Z" fill="white"/>
</g>
</g>
</svg>
