<svg width="635" height="738" viewBox="0 0 635 738" fill="none" xmlns="http://www.w3.org/2000/svg">
<circle cx="506.5" cy="150.5" r="47.5" fill="#1E2A5F" stroke="white" stroke-width="10"/>
<circle cx="381" cy="223" r="31" fill="#1E2A5F" stroke="white" stroke-width="10"/>
<circle cx="480" cy="24" r="8" fill="#1E2A5F" stroke="white" stroke-width="10"/>
<circle cx="334" cy="75" r="70" fill="#1E2A5F" stroke="white" stroke-width="10"/>
<mask id="mask0_125_97" style="mask-type:alpha" maskUnits="userSpaceOnUse" x="0" y="103" width="635" height="635">
<circle cx="317.5" cy="420.5" r="317.5" fill="#D9D9D9"/>
</mask>
<g mask="url(#mask0_125_97)">
<mask id="mask1_125_97" style="mask-type:luminance" maskUnits="userSpaceOnUse" x="-12" y="117" width="660" height="633">
<mask id="path-6-outside-1_125_97" maskUnits="userSpaceOnUse" x="-12" y="116.649" width="660" height="634" fill="black">
<rect fill="white" x="-12" y="116.649" width="660" height="634"/>
<path fill-rule="evenodd" clip-rule="evenodd" d="M259 217C262.18 217 265.319 216.823 268.407 216.479C284.017 267.719 331.655 305 388 305C421.286 305 451.534 291.989 473.934 270.776C488.473 285.135 508.451 294 530.5 294C557.285 294 581.015 280.918 595.648 260.795C622.592 307.683 638 362.042 638 420C638 596.731 494.731 740 318 740C141.269 740 -2 596.731 -2 420C-2 294.665 70.0561 186.159 175.002 133.649C175.351 179.742 212.825 217 259 217Z"/>
</mask>
<path fill-rule="evenodd" clip-rule="evenodd" d="M259 217C262.18 217 265.319 216.823 268.407 216.479C284.017 267.719 331.655 305 388 305C421.286 305 451.534 291.989 473.934 270.776C488.473 285.135 508.451 294 530.5 294C557.285 294 581.015 280.918 595.648 260.795C622.592 307.683 638 362.042 638 420C638 596.731 494.731 740 318 740C141.269 740 -2 596.731 -2 420C-2 294.665 70.0561 186.159 175.002 133.649C175.351 179.742 212.825 217 259 217Z" fill="white"/>
<path d="M268.407 216.479L277.973 213.565L275.553 205.621L267.299 206.541L268.407 216.479ZM473.934 270.776L480.961 263.661L474.081 256.865L467.058 263.515L473.934 270.776ZM595.648 260.795L604.319 255.813L596.633 242.438L587.561 254.914L595.648 260.795ZM175.002 133.649L185.002 133.574L184.881 117.525L170.528 124.706L175.002 133.649ZM267.299 206.541C264.578 206.844 261.809 207 259 207V227C262.551 227 266.059 226.803 269.514 226.418L267.299 206.541ZM388 295C336.177 295 292.336 260.714 277.973 213.565L258.841 219.393C275.697 274.725 327.132 315 388 315V295ZM467.058 263.515C446.441 283.04 418.628 295 388 295V315C423.945 315 456.627 300.939 480.81 278.037L467.058 263.515ZM530.5 284C511.187 284 493.705 276.247 480.961 263.661L466.907 277.891C483.241 294.024 505.716 304 530.5 304V284ZM587.561 254.914C574.728 272.56 553.95 284 530.5 284V304C560.62 304 587.301 289.276 603.736 266.677L587.561 254.914ZM586.978 265.778C613.074 311.19 628 363.836 628 420H648C648 360.247 632.11 304.176 604.319 255.813L586.978 265.778ZM628 420C628 591.208 489.208 730 318 730V750C500.254 750 648 602.254 648 420H628ZM318 730C146.792 730 8 591.208 8 420H-12C-12 602.254 135.746 750 318 750V730ZM8 420C8 298.596 77.7859 193.474 179.477 142.592L170.528 124.706C62.3262 178.845 -12 290.734 -12 420H8ZM259 207C218.322 207 185.31 174.178 185.002 133.574L165.003 133.725C165.393 185.307 207.327 227 259 227V207Z" fill="white" mask="url(#path-6-outside-1_125_97)"/>
</mask>
<g mask="url(#mask1_125_97)">
<path d="M630.312 420.242C630.312 247.7 490.426 107.803 317.872 107.803C145.318 107.803 5.43213 247.675 5.43213 420.242C5.43213 592.81 145.318 732.682 317.872 732.682C490.426 732.682 630.312 592.81 630.312 420.242Z" fill="#1E2A5F" stroke="white" stroke-width="10"/>
<path d="M391.192 429.824C391.192 399.076 400.75 373.611 417.67 355.869C434.562 338.156 459.219 327.69 490.333 327.69C534.831 327.69 561.762 351.682 572.765 375.635L528.462 396.925C525.687 388.839 521.691 381.952 516.141 376.799C509.207 370.36 500.257 367.015 489.411 367.015C474.548 367.015 462.987 373.289 455.364 384.689C447.928 395.81 444.501 411.389 444.501 429.824C444.501 448.147 447.929 463.534 455.388 474.485C463.037 485.716 474.605 491.789 489.411 491.789C499.49 491.789 507.857 489.084 514.539 483.842C519.947 479.6 523.981 473.908 526.97 467.25L573.572 483.838C566.674 497.528 556.964 508.989 544.253 517.286C530.066 526.546 511.866 532.045 489.104 532.045C457.543 532.045 433.223 521.502 416.764 503.784C400.259 486.016 391.192 460.526 391.192 429.824ZM74.2642 448.744V331.33H126.388V449.947C126.388 464.089 128.176 474.88 134.572 482.414C140.816 489.82 150.499 492.71 162.753 492.71C174.981 492.71 184.67 489.822 190.912 482.419C197.343 474.878 199.1 464.073 199.1 449.947V331.33H251.234V448.744C251.234 477.274 248.212 490.22 240.663 503.134C234.665 513.116 223.368 520.481 209.093 525.349C194.886 530.194 178.326 532.353 162.753 532.353C147.168 532.353 130.609 530.194 116.407 525.349C102.136 520.481 90.8453 513.115 84.8486 503.131C77.2773 490.22 74.2642 477.279 74.2642 448.744ZM298.943 528.384V331.33H351.074V528.384H298.943Z" fill="white" stroke="white" stroke-width="10"/>
<path fill-rule="evenodd" clip-rule="evenodd" d="M268.407 216.479C265.319 216.823 262.18 217 259 217C212.608 217 175 179.392 175 133C175 86.6081 212.608 49 259 49C282.976 49 304.605 59.0446 319.91 75.1552C339.5 62.4067 362.885 54.9998 388 54.9998C441.922 54.9998 487.87 89.1426 505.403 136.989C513.301 134.4 521.737 133 530.5 133C574.959 133 611 169.041 611 213.5C611 257.959 574.959 294 530.5 294C508.451 294 488.473 285.135 473.934 270.776C451.534 291.989 421.286 305 388 305C331.655 305 284.017 267.719 268.407 216.479Z" fill="white"/>
</g>
</g>
</svg>
